<svg width="300" height="300" viewBox="0 0 300 300" fill="none" xmlns="http://www.w3.org/2000/svg">
<path d="M127.843 159.767C128.601 146.243 135.224 134.329 145.215 125.883C155.013 117.587 168.201 112.517 182.591 112.517C196.966 112.517 210.154 117.587 219.959 125.883C229.943 134.329 236.566 146.243 237.331 159.753C238.089 173.648 232.504 186.557 222.706 196.125C212.715 205.859 198.504 211.966 182.591 211.966C166.678 211.966 152.439 205.859 142.454 196.125C132.649 186.557 127.078 173.648 127.843 159.767Z" fill="white"/>
<path d="M154.459 160.99C154.848 154.051 158.246 147.938 163.372 143.604C168.4 139.348 175.167 136.746 182.55 136.746C189.926 136.746 196.693 139.348 201.724 143.604C206.847 147.938 210.245 154.052 210.638 160.983C211.027 168.113 208.161 174.736 203.133 179.646C198.007 184.64 190.715 187.774 182.55 187.774C174.385 187.774 167.079 184.64 161.956 179.646C156.925 174.736 154.066 168.113 154.459 160.99Z" fill="#265787"/>
<path d="M109.725 175.044C109.773 177.759 110.639 183.036 111.938 187.157C114.668 195.879 119.299 203.948 125.743 211.06C132.356 218.37 140.499 224.241 149.904 228.409C159.791 232.787 170.502 235.018 181.629 235C192.737 234.985 203.449 232.71 213.335 228.299C222.74 224.09 230.876 218.194 237.477 210.88C243.918 203.739 248.542 195.655 251.279 186.933C252.655 182.526 253.525 178.053 253.874 173.565C254.215 169.143 254.072 164.714 253.444 160.289C252.219 151.665 249.235 143.574 244.641 136.198C240.439 129.421 235.022 123.487 228.582 118.493L228.597 118.482L163.603 68.5805C163.545 68.5365 163.497 68.4888 163.435 68.4485C159.17 65.1753 152 65.1863 147.31 68.4668C142.569 71.7841 142.026 77.2699 146.246 80.7303L146.227 80.7486L173.335 102.791L90.7127 102.879H90.6026C83.7734 102.887 77.2083 107.367 75.9093 113.029C74.5735 118.798 79.2119 123.583 86.3127 123.608L86.3018 123.634L128.18 123.553L53.4508 180.911C53.3554 180.981 53.2527 181.054 53.1646 181.124C46.1152 186.522 43.8364 195.498 48.2767 201.178C52.783 206.954 62.3645 206.965 69.4873 201.211L110.272 167.833C110.272 167.833 109.678 172.339 109.725 175.044ZM214.527 190.133C206.124 198.694 194.359 203.549 181.629 203.574C168.88 203.596 157.115 198.786 148.712 190.239C144.605 186.074 141.589 181.282 139.728 176.178C137.905 171.162 137.196 165.837 137.666 160.465C138.11 155.214 139.673 150.205 142.169 145.673C144.62 141.218 147.996 137.193 152.165 133.788C160.334 127.131 170.734 123.528 181.61 123.513C192.498 123.498 202.891 127.069 211.067 133.703C215.228 137.094 218.601 141.105 221.052 145.552C223.558 150.08 225.111 155.071 225.573 160.336C226.035 165.701 225.327 171.018 223.503 176.038C221.639 181.157 218.634 185.95 214.527 190.133Z" fill="#EA7600"/>
</svg>
