<svg width="24" height="24" viewBox="0 0 24 24" fill="none" xmlns="http://www.w3.org/2000/svg">
<path d="M12.0809 2V11.8644M12.0809 11.8644H9C7.34315 11.8644 6 13.2075 6 14.8644V18M12.0809 11.8644H15C16.6569 11.8644 18 13.2075 18 14.8644V18" stroke="white" stroke-width="2"/>
<path d="M4.86457 19C5.02407 19 5.17178 19.084 5.25331 19.2211L5.34512 19.3755C5.64164 19.874 6.36261 19.8766 6.66264 19.3801L6.76802 19.2057C6.84519 19.078 6.98353 19 7.13274 19C7.48248 19 7.68332 19.398 7.47552 19.6794L6.90287 20.4546C6.66377 20.7783 6.66538 21.2205 6.90683 21.5424L7.4916 22.3221C7.70107 22.6014 7.50179 23 7.15267 23C7.00814 23 6.87357 22.9263 6.79572 22.8045L6.68006 22.6236C6.36331 22.1282 5.63908 22.1297 5.32441 22.6265L5.22057 22.7904C5.13792 22.9209 4.9942 23 4.83972 23C4.48019 23 4.26531 22.5998 4.46396 22.3001L4.98111 21.5199C5.19047 21.2041 5.19291 20.7943 4.98732 20.476L4.48463 19.6977C4.29024 19.3967 4.50629 19 4.86457 19Z" fill="white"/>
<path d="M20 21C20 22.1046 19.1046 23 18 23C16.8954 23 16 22.1046 16 21C16 19.8954 16.8954 19 18 19C19.1046 19 20 19.8954 20 21ZM16.9643 21C16.9643 21.572 17.428 22.0357 18 22.0357C18.572 22.0357 19.0357 21.572 19.0357 21C19.0357 20.428 18.572 19.9643 18 19.9643C17.428 19.9643 16.9643 20.428 16.9643 21Z" fill="white"/>
</svg>
