<svg xmlns="http://www.w3.org/2000/svg" height="24px" viewBox="0 -960 960 960" width="24px" fill="#e3e3e3"><path d="M261.44-119.37q-90.17-34.75-90.17-84.4 0-25.69 26.96-49.06 26.96-23.36 70.85-37.67L312-255.65q-41.5 12.96-64.13 27.11-22.64 14.15-27.64 24.77 10 19.62 73.89 45.4Q358-132.58 480-132.58t186.38-25.79q64.39-25.78 74.39-45.4-5-10.62-27.64-24.77-22.63-14.15-64.13-27.11l42.11-34.85q43.7 14.31 70.66 37.67 26.96 23.37 26.96 49.06 0 49.65-90.17 84.4Q608.38-84.62 480-84.62t-218.56-34.75Zm202.1-123.03q-7.73-3.79-14.23-8.79L188.54-474.08q-8.12-8-12.29-17.09-4.17-9.1-4.17-20.06v-98.62q0-11.15 4.27-20.59t12.19-18.14l261.54-221.46q6.11-4.5 13.84-7.65 7.73-3.15 16.08-3.15 8.35 0 16.08 3.15 7.73 3.15 13.84 7.65l261.54 221.46q8.12 8.7 12.29 18.14 4.17 9.44 4.17 20.59v99.62q0 10.96-4.17 20.06-4.17 9.09-12.29 17.09L510.69-250.19q-6.5 5-14.23 8.29-7.73 3.28-16.46 3.28t-16.46-3.78Zm-70.46-334.29q12.69-12.69 12.69-30.66 0-17.96-12.69-30.65-12.7-12.69-30.66-12.69T331.77-638q-12.69 12.69-12.69 30.65 0 17.97 12.69 30.66Q344.46-564 362.42-564t30.66-12.69Zm24.27 72q39.77 20.5 83.42 13.56 43.65-6.95 75.92-39.72 27.89-29.46 36.19-66.51 8.31-37.06-2.03-76.41l-193.5 169.08Zm94.11-178.39q12.69-12.69 12.69-30.65t-12.69-30.65q-12.69-12.7-30.65-12.7t-30.66 12.7q-12.69 12.69-12.69 30.65t12.69 30.65q12.7 12.7 30.66 12.7t30.65-12.7Z"/></svg>