<svg width="300" height="300" viewBox="0 0 300 300" fill="none" xmlns="http://www.w3.org/2000/svg">
<g clip-path="url(#clip0_200_217)">
<path d="M112.008 265C132.979 265 150 247.902 150 226.834V188.667H112.008C91.0357 188.667 74.0151 205.766 74.0151 226.834C74.0151 247.902 91.0357 265 112.008 265Z" fill="#0ACF83"/>
<path d="M74.0151 150.5C74.0151 129.432 91.0357 112.333 112.008 112.333H150V188.666H112.008C91.0357 188.666 74.0151 171.568 74.0151 150.5Z" fill="#A259FF"/>
<path d="M74.0151 74.1667C74.0151 53.0987 91.0357 36 112.008 36H150V112.333H112.008C91.0357 112.333 74.0151 95.2347 74.0151 74.1667Z" fill="#F24E1E"/>
<path d="M150 36H187.992C208.964 36 225.985 53.0987 225.985 74.1667C225.985 95.2347 208.964 112.333 187.992 112.333H150V36Z" fill="#FF7262"/>
<path d="M225.985 150.5C225.985 171.568 208.964 188.666 187.992 188.666C167.021 188.666 150 171.568 150 150.5C150 129.432 167.021 112.333 187.992 112.333C208.964 112.333 225.985 129.432 225.985 150.5Z" fill="#1ABCFE"/>
</g>
<defs>
<clipPath id="clip0_200_217">
<rect width="152" height="229" fill="white" transform="translate(74 36)"/>
</clipPath>
</defs>
</svg>
