<svg width="300" height="300" viewBox="0 0 300 300" fill="none" xmlns="http://www.w3.org/2000/svg">
<mask id="mask0_239_547" style="mask-type:luminance" maskUnits="userSpaceOnUse" x="9" y="114" width="283" height="73">
<path d="M291.909 114H9V187H291.909V114Z" fill="white"/>
</mask>
<g mask="url(#mask0_239_547)">
<path d="M83.0151 169.351V114.072H91.6092V135.86C94.3139 131.83 98.3807 129.824 103.791 129.824C108.41 129.824 111.98 131.186 114.501 133.928C117.022 136.651 118.292 140.461 118.292 145.337V169.351H109.698V146.533C109.698 140.221 106.883 137.075 101.252 137.075C98.4359 137.075 96.1358 137.921 94.3322 139.614C92.5294 141.307 91.6276 143.699 91.6276 146.772V169.351H83.0151Z" fill="#020203"/>
<path d="M158.881 164.587C155.054 168.396 150.251 170.31 144.473 170.31C138.694 170.31 133.874 168.396 130.027 164.587C126.181 160.778 124.249 155.92 124.249 150.031C124.249 144.143 126.181 139.303 130.027 135.512C133.874 131.722 138.694 129.826 144.473 129.826C150.251 129.826 155.054 131.722 158.881 135.512C162.709 139.303 164.604 144.143 164.604 150.031C164.622 155.92 162.709 160.76 158.881 164.587ZM136.321 159.729C138.363 162.121 141.087 163.299 144.473 163.299C147.877 163.299 150.582 162.103 152.625 159.729C154.668 157.337 155.68 154.117 155.698 150.031C155.698 146.001 154.668 142.8 152.588 140.407C150.527 138.015 147.803 136.819 144.473 136.837C141.068 136.837 138.363 138.015 136.321 140.37C134.278 142.726 133.248 145.946 133.248 150.031C133.266 154.117 134.278 157.355 136.321 159.729Z" fill="#020203"/>
<path d="M184.518 170.31C176.605 170.31 172.648 166.077 172.648 157.594V138.033H166.686V130.801H172.887L174.875 119.429H181.315V130.801H196.681V138.033H181.315V157.355C181.315 160.906 182.622 162.691 185.217 162.691C187.665 162.691 189.854 160.465 191.823 156.012L198.503 159.434C195.246 166.685 190.571 170.31 184.518 170.31Z" fill="#020203"/>
<path d="M201.296 187.019C197.469 187.019 194.322 185.951 191.819 183.835L195.002 177.082C196.548 178.885 198.205 179.787 200.008 179.787C202.4 179.787 203.596 178.241 203.596 175.168V130.783H212.19V175.315C212.19 179.455 211.159 182.436 209.117 184.258C207.092 186.098 204.48 187 201.296 187.019ZM207.902 124.268C206.486 124.323 205.123 123.808 204.075 122.833C203.578 122.373 203.191 121.802 202.934 121.158C202.676 120.514 202.547 119.852 202.566 119.171C202.547 118.49 202.676 117.791 202.934 117.165C203.191 116.521 203.578 115.951 204.075 115.472C205.105 114.534 206.467 114 207.884 114C209.282 114 210.644 114.534 211.693 115.472C212.19 115.951 212.594 116.521 212.871 117.147C213.147 117.791 213.275 118.472 213.257 119.171C213.275 119.852 213.147 120.514 212.871 121.14C212.594 121.766 212.208 122.318 211.712 122.778C211.214 123.256 210.626 123.643 209.963 123.882C209.282 124.158 208.602 124.268 207.902 124.268Z" fill="#020203"/>
<path d="M233.537 170.31C229.14 170.31 225.569 169.206 222.827 167.016C220.086 164.808 218.724 161.864 218.724 158.147C218.724 154.761 220.141 151.872 222.975 149.516C225.808 147.161 229.379 145.983 233.685 145.983C238.082 145.983 241.8 147.382 244.836 150.197V145.504C244.836 142.744 244.137 140.61 242.72 139.101C241.321 137.592 239.315 136.837 236.703 136.837C231.458 136.837 228.183 139.506 226.912 144.86L219.037 143.186C220.104 139.045 222.202 135.788 225.33 133.396C228.459 131.004 232.36 129.826 237.034 129.826C242.131 129.826 246.143 131.169 249.087 133.838C252.031 136.524 253.503 140.426 253.503 145.56V169.335H245.149V164.477C242.352 168.378 238.488 170.31 233.537 170.31ZM235.138 163.943C238.966 163.943 242.204 162.029 244.855 158.22V157.024C242.204 153.841 238.966 152.258 235.138 152.258C232.912 152.258 231.108 152.81 229.728 153.896C229.084 154.374 228.551 155 228.183 155.736C227.814 156.454 227.649 157.263 227.649 158.073C227.63 158.883 227.796 159.711 228.146 160.447C228.495 161.183 229.029 161.827 229.673 162.324C231.034 163.41 232.856 163.943 235.138 163.943Z" fill="#020203"/>
<path d="M261.9 169.354V130.784H270.255V137.464C272.371 132.587 276.033 130.14 281.241 130.14C284.314 130.14 286.871 131.152 288.877 133.158C290.902 135.163 291.895 137.868 291.895 141.273C291.877 143.297 291.527 145.321 290.865 147.235L282.989 146.444C283.155 145.395 283.265 144.327 283.302 143.26C283.302 139.285 281.664 137.298 278.37 137.298C276.143 137.298 274.266 138.476 272.758 140.831C271.248 143.187 270.494 146.296 270.494 150.179V169.354H261.9Z" fill="#020203"/>
<path d="M29.334 136.69C35.7378 133.139 44.5154 128.262 44.5154 114.093H33.8976C33.8976 122.024 30.0332 124.177 24.1815 127.416C17.7776 130.967 9 135.844 9 150.013H19.6178C19.6178 142.082 23.4822 139.929 29.334 136.69Z" fill="#E73C1F"/>
<path d="M47.7173 133.434C47.7173 141.365 43.853 143.518 38.0013 146.757C31.5975 150.308 22.8198 155.185 22.8198 169.354H33.4376C33.4376 161.423 37.302 159.27 43.1538 156.031C49.5576 152.479 58.3352 147.603 58.3352 133.434H47.7173Z" fill="#E73C1F"/>
</g>
</svg>
