<svg width="300" height="300" viewBox="0 0 300 300" fill="none" xmlns="http://www.w3.org/2000/svg">
<path d="M219.756 56H80.2435C60.2268 56 44 71.8441 44 91.3887V227.611C44 247.156 60.2268 263 80.2435 263H219.756C239.773 263 256 247.156 256 227.611V91.3887C256 71.8441 239.773 56 219.756 56Z" fill="#330000"/>
<path d="M147.549 110.772H115.826L79.3872 206.506H107.778L112.51 192.206H148.957L153.689 206.506H182.945L147.558 110.772H147.549ZM130.725 168.318H120.405L130.725 137.111L141.045 168.318H130.725Z" fill="#FF9A00"/>
<path d="M212.837 131.133H186.566V206.506H212.837V131.133Z" fill="#FF9A00"/>
<path d="M213.702 117.503C213.778 124.533 207.952 129.501 199.71 129.435C191.458 129.501 185.641 124.533 185.718 117.503C185.641 110.474 191.467 105.506 199.71 105.572C207.961 105.506 213.778 110.474 213.702 117.503Z" fill="#FF9A00"/>
</svg>
