<svg width="674" height="181" viewBox="0 0 674 181" fill="none" xmlns="http://www.w3.org/2000/svg">
<g style="mix-blend-mode:luminosity" clip-path="url(#clip0_199_151)">
<path d="M85.3449 98.9911C86.0996 85.5277 92.6927 73.6662 102.639 65.2578C112.394 56.999 125.523 51.9512 139.849 51.9512C154.16 51.9512 167.289 56.999 177.051 65.2578C186.99 73.6662 193.584 85.5278 194.345 98.9769C195.1 112.811 189.539 125.662 179.785 135.188C169.838 144.878 155.691 150.958 139.849 150.958C124.007 150.958 109.831 144.878 99.8911 135.188C90.1295 125.662 84.583 112.81 85.3449 98.9911Z" fill="white"/>
<path d="M111.842 100.209C112.229 93.3006 115.612 87.2144 120.716 82.9C125.721 78.6623 132.458 76.0723 139.808 76.0723C147.151 76.0723 153.888 78.6623 158.897 82.9C163.997 87.2144 167.38 93.3006 167.771 100.201C168.158 107.3 165.305 113.894 160.3 118.781C155.196 123.753 147.937 126.873 139.808 126.873C131.679 126.873 124.406 123.753 119.306 118.781C114.297 113.894 111.451 107.3 111.842 100.209Z" fill="#265787"/>
<path d="M67.3077 114.2C67.3552 116.903 68.2174 122.157 69.5107 126.259C72.2288 134.943 76.8392 142.976 83.2545 150.056C89.8378 157.333 97.9446 163.178 107.308 167.328C117.15 171.686 127.814 173.907 138.891 173.889C149.95 173.874 160.614 171.609 170.456 167.218C179.819 163.028 187.919 157.158 194.491 149.877C200.903 142.768 205.506 134.72 208.231 126.036C209.601 121.649 210.467 117.196 210.814 112.728C211.154 108.326 211.012 103.916 210.387 99.5105C209.167 90.9256 206.196 82.8704 201.622 75.5275C197.439 68.7801 192.047 62.873 185.636 57.901L185.65 57.8901L120.946 8.21062C120.887 8.16678 120.84 8.11936 120.778 8.07918C116.533 4.82056 109.394 4.83153 104.725 8.09746C100.005 11.3999 99.4643 16.8613 103.666 20.3063L103.647 20.3246L130.635 42.2692L48.3798 42.3568H48.2702C41.4714 42.3641 34.9356 46.8246 33.6423 52.4614C32.3125 58.2042 36.9303 62.9679 43.9995 62.9935L43.9885 63.0191L85.6803 62.9387L11.2839 120.041C11.1889 120.111 11.0866 120.184 10.9989 120.253C3.98087 125.627 1.7122 134.563 6.13273 140.218C10.619 145.968 20.1579 145.979 27.249 140.251L67.8521 107.021C67.8521 107.021 67.2602 111.508 67.3077 114.2ZM171.643 129.222C163.277 137.745 151.564 142.578 138.891 142.603C126.199 142.625 114.487 137.836 106.121 129.328C102.033 125.181 99.0296 120.41 97.1774 115.329C95.3616 110.335 94.6566 105.034 95.1242 99.6859C95.5662 94.4582 97.1226 89.4716 99.6069 84.96C102.047 80.525 105.408 76.5176 109.559 73.1274C117.691 66.5006 128.044 62.9131 138.873 62.8985C149.712 62.8839 160.059 66.4385 168.198 73.0434C172.341 76.4189 175.698 80.4118 178.139 84.8395C180.634 89.3475 182.179 94.3157 182.64 99.558C183.1 104.899 182.395 110.192 180.579 115.19C178.723 120.286 175.731 125.057 171.643 129.222Z" fill="#EA7600"/>
<path d="M555.137 100.099C555.762 93.1284 561.15 88.7081 569.381 88.7081C577.623 88.7081 583.008 93.1284 583.633 100.099H555.137ZM582.789 117.309C580.681 122.474 575.713 125.532 568.965 125.532C560.515 125.532 554.826 120.257 554.596 111.924H603.175V109.473C603.175 88.5985 590.921 76.8682 568.965 76.8682C547.644 76.8682 534.751 88.7081 534.751 107.277C534.751 125.959 547.845 137.781 568.965 137.781C581.638 137.781 591.466 133.438 597.523 125.802L582.789 117.309Z" fill="#265787"/>
<path d="M339.591 100.136C340.233 93.1653 345.622 88.7449 353.86 88.7449C362.088 88.7449 367.473 93.1653 368.105 100.136H339.591ZM367.261 117.346C365.149 122.526 360.184 125.584 353.422 125.584C344.987 125.584 339.284 120.294 339.061 111.957H387.628V109.521C387.628 88.6354 375.379 76.9014 353.422 76.9014C332.09 76.9014 319.223 88.745 319.223 107.314C319.223 125.996 332.309 137.818 353.422 137.818C366.092 137.818 375.927 133.489 381.995 125.843L367.261 117.346Z" fill="#265787"/>
<path d="M314.876 64.2607H297.358V135.925H314.876V64.2607Z" fill="#265787"/>
<path d="M391.979 83.2937H409.595V87.5606C415.832 80.9045 423.321 77.54 431.767 77.54C441.496 77.54 448.861 80.9045 452.664 86.6327C455.839 91.3636 456.047 97.0735 456.047 104.577V135.918H438.406V108.38C438.406 96.9529 436.108 91.6778 426.076 91.6778C415.938 91.6778 409.595 97.7164 409.595 107.854V135.918H391.979V83.2937Z" fill="#265787"/>
<path d="M512.795 108.172C512.795 117.981 506.241 124.414 496.099 124.414C485.95 124.414 479.396 118.2 479.396 108.285C479.396 98.2243 485.862 92.0139 496.099 92.0139C506.241 92.0139 512.795 98.3339 512.795 108.172ZM512.795 85.6794C508.341 80.9047 501.897 78.2853 492.939 78.2853C473.613 78.2853 460.417 90.2019 460.417 108.062C460.417 125.572 473.521 137.821 492.621 137.821C501.378 137.821 507.808 135.607 512.795 130.642V135.918H530.422V59.709L512.795 64.2535V85.6794Z" fill="#265787"/>
<path d="M257.318 92.0257C267.562 92.0257 274.002 98.236 274.002 108.297C274.002 118.212 267.459 124.426 257.318 124.426C247.183 124.426 240.637 117.992 240.637 108.184C240.637 98.3457 247.183 92.0257 257.318 92.0257ZM240.637 64.2653L223.002 59.7207V135.929H240.637V130.654C245.598 135.619 252.039 137.833 260.803 137.833C279.913 137.833 293 125.584 293 108.074C293 90.2138 279.8 78.2971 260.485 78.2971C251.509 78.2971 245.068 80.9164 240.637 85.6911V64.2653Z" fill="#265787"/>
<path d="M607.525 135.937V83.3128H625.153V86.5642C630.432 80.2077 636.018 77.0439 642.371 77.0439C643.631 77.0439 645.217 77.2485 647.325 77.4568V92.4603C645.626 92.2375 643.734 92.2374 641.724 92.2374C631.477 92.2374 625.153 98.9958 625.153 110.489V135.937H607.525Z" fill="#265787"/>
<path d="M668.528 97.7788V82.9285H675.792C676.731 82.9285 677.59 83.123 678.368 83.512C679.159 83.9011 679.783 84.4645 680.239 85.2023C680.709 85.9267 680.943 86.8121 680.943 87.8585C680.943 88.9048 680.702 89.7969 680.219 90.5348C679.736 91.2726 679.092 91.836 678.287 92.225C677.482 92.6007 676.59 92.7885 675.611 92.7885H670.641V89.9915H674.806C675.369 89.9915 675.852 89.8104 676.255 89.4481C676.671 89.0859 676.879 88.5493 676.879 87.8384C676.879 87.1005 676.671 86.5774 676.255 86.2688C675.852 85.9469 675.376 85.7859 674.826 85.7859H672.391V97.7788H668.528ZM678.005 90.9171L681.386 97.7788H677.16L674.001 90.9171H678.005ZM674.343 106.633C672.116 106.633 670.03 106.217 668.085 105.385C666.14 104.553 664.43 103.4 662.954 101.924C661.478 100.448 660.325 98.738 659.493 96.7928C658.661 94.8477 658.245 92.7616 658.245 90.5348C658.245 88.3079 658.661 86.2219 659.493 84.2767C660.325 82.3315 661.478 80.6211 662.954 79.1455C664.43 77.6698 666.14 76.5162 668.085 75.6844C670.03 74.8527 672.116 74.4368 674.343 74.4368C676.57 74.4368 678.656 74.8527 680.601 75.6844C682.546 76.5162 684.257 77.6698 685.732 79.1455C687.208 80.6211 688.362 82.3315 689.193 84.2767C690.025 86.2219 690.441 88.3079 690.441 90.5348C690.441 92.7616 690.025 94.8477 689.193 96.7928C688.362 98.738 687.208 100.448 685.732 101.924C684.257 103.4 682.546 104.553 680.601 105.385C678.656 106.217 676.57 106.633 674.343 106.633ZM674.343 102.387C676.543 102.387 678.535 101.857 680.319 100.797C682.117 99.724 683.546 98.2953 684.606 96.5111C685.665 94.7135 686.195 92.7214 686.195 90.5348C686.195 88.3481 685.659 86.3627 684.585 84.5785C683.526 82.7809 682.097 81.3522 680.299 80.2925C678.515 79.2193 676.53 78.6827 674.343 78.6827C672.17 78.6827 670.185 79.2193 668.387 80.2925C666.589 81.3522 665.161 82.7809 664.101 84.5785C663.041 86.3627 662.511 88.3481 662.511 90.5348C662.511 92.7214 663.041 94.7135 664.101 96.5111C665.161 98.2953 666.589 99.724 668.387 100.797C670.185 101.857 672.17 102.387 674.343 102.387Z" fill="#236192"/>
</g>
<defs>
<clipPath id="clip0_199_151">
<rect width="674" height="181" fill="white"/>
</clipPath>
</defs>
</svg>
