<?xml version="1.0" encoding="UTF-8"?>
<svg id="Camada_1" data-name="Camada 1" xmlns="http://www.w3.org/2000/svg" viewBox="0 0 1000 1000">
  <path d="M123.89,294.27h301.16v128.81h-147.9v47.11h138.95v112.12h-137.16v123.45H123.89v-411.49Z"/>
  <path d="M794.42,550.69c42.94-27.43,60.23-65.6,60.23-116.89,0-103.77-85.28-139.56-198.6-139.56h-177.72v411.52h155.07v-133h11.33l54.87,133h176.53l-81.7-155.07ZM716.08,444.12c-.81,1.63-2.14,2.95-3.77,3.77l-90.16,45.09c-3.28,1.6-7.23.91-9.76-1.73-2.54-2.63-3.09-6.6-1.37-9.82l18.87-35.06c1.99-3.72,1.99-8.19,0-11.91l-18.87-35.06c-1.73-3.22-1.17-7.19,1.37-9.82,2.51-2.67,6.45-3.42,9.76-1.85l90.16,45.09c4.16,2.08,5.85,7.14,3.77,11.29Z"/>
</svg>