<svg width="40" height="40" viewBox="0 0 40 40" fill="none" xmlns="http://www.w3.org/2000/svg">
<path d="M25.2632 3.55566C28.0246 3.55566 30.2632 5.79424 30.2632 8.55566L30.2632 15.4699C30.2632 17.2599 28.8121 18.7109 27.0221 18.7109C25.2321 18.7109 23.7811 17.2599 23.7811 15.4699L23.7811 12.4535C23.7811 11.7989 23.2504 11.2682 22.5957 11.2682C21.9411 11.2682 21.4104 11.7989 21.4104 12.4535L21.4104 15.4394C21.4104 16.9975 20.1473 18.2605 18.5893 18.2605C17.0312 18.2605 15.7681 16.9975 15.7681 15.4394L15.7681 14.4644C15.7681 12.7489 14.3775 11.3582 12.662 11.3582C10.9465 11.3582 9.55577 9.96756 9.55577 8.25206L9.55577 7.45695C9.55577 5.30233 11.3024 3.55566 13.4571 3.55566L25.2632 3.55566Z" fill="black"/>
<path d="M17.3593 32.333C17.3593 32.3329 17.3595 32.3329 17.3595 32.333C18.7399 34.4936 20.6606 35.3636 23.2416 35.3636C28.4636 35.3636 30.2646 31.072 30.2646 25.3694L30.2646 21.426C30.2646 18.6646 28.0261 16.426 25.2646 16.426L13.4575 16.426C11.3026 16.426 9.55573 18.1729 9.55573 20.3278L9.55573 20.8831C9.55573 22.7313 11.054 24.2296 12.9022 24.2296L15.9071 24.2296C16.0958 24.2296 16.2487 24.3825 16.2487 24.5712C16.2487 24.7095 16.1653 24.8342 16.0374 24.8869L11.918 26.5864C10.4884 27.1762 9.55573 28.57 9.55573 30.1164C9.55573 32.9907 12.6114 34.8346 15.1543 33.4949L17.3592 32.3332C17.3593 32.3331 17.3593 32.3331 17.3593 32.333ZM22.7225 28.3903C22.7223 28.3903 22.7222 28.3903 22.722 28.3902C22.6401 28.3494 22.5737 28.2826 22.5325 28.2006L20.2635 23.6635C20.1829 23.4984 20.2177 23.2996 20.3505 23.1723C20.4829 23.0445 20.6826 23.0168 20.8447 23.1034L22.609 24.053C22.7962 24.1531 23.0212 24.1531 23.2084 24.053L24.9727 23.1034C25.1347 23.0163 25.3345 23.0445 25.4669 23.1723C25.6012 23.2986 25.639 23.4969 25.5599 23.6635L23.2909 28.2006C23.1863 28.4099 22.9318 28.4949 22.723 28.3904C22.7228 28.3904 22.7227 28.3903 22.7225 28.3903Z" fill="black"/>
</svg>
