<svg width="300" height="300" viewBox="0 0 300 300" fill="none" xmlns="http://www.w3.org/2000/svg">
<g clip-path="url(#clip0_240_534)">
<path d="M89.9963 149.995H77.083C76.4857 149.991 75.9145 149.75 75.4948 149.325C75.0751 148.9 74.8413 148.326 74.8448 147.729V124.949C74.8448 124.698 74.7459 124.457 74.5694 124.278C74.393 124.1 74.1533 123.998 73.9023 123.995H67.7381C67.4872 123.998 67.2475 124.1 67.071 124.278C66.8946 124.457 66.7956 124.698 66.7956 124.949V147.729C66.7991 148.326 66.5653 148.9 66.1456 149.325C65.7259 149.75 65.1547 149.991 64.5575 149.995H60.9868C60.3896 149.991 59.8183 149.75 59.3987 149.325C58.979 148.9 58.7452 148.326 58.7486 147.729V124.949C58.7487 124.698 58.6497 124.457 58.4733 124.278C58.2968 124.1 58.0571 123.998 57.8061 123.995H51.6441C51.3932 123.998 51.1535 124.1 50.977 124.278C50.8006 124.457 50.7016 124.698 50.7016 124.949V147.729C50.7051 148.326 50.4713 148.9 50.0516 149.325C49.6319 149.75 49.0607 149.991 48.4635 149.995H35.5501C35.2988 149.998 35.0585 150.099 34.8816 150.278C34.7047 150.456 34.6055 150.697 34.6055 150.949V175.042C34.6055 175.569 35.028 175.995 35.548 175.995H49.7591C50.2791 175.995 50.7016 175.569 50.7016 175.042V152.262C50.6982 151.664 50.932 151.09 51.3517 150.665C51.7713 150.24 52.3426 149.999 52.9398 149.995H56.5105C57.7455 149.995 58.7486 151.009 58.7486 152.262V175.042C58.7486 175.569 59.1711 175.995 59.6911 175.995H65.8553C66.3753 175.995 66.7956 175.569 66.7956 175.042V152.262C66.7922 151.664 67.026 151.09 67.4457 150.665C67.8653 150.24 68.4366 149.999 69.0338 149.995H72.6066C73.8416 149.995 74.8448 151.009 74.8448 152.262V175.042C74.8448 175.569 75.2651 175.995 75.7851 175.995H89.9985C90.5185 175.995 90.9388 175.569 90.9388 175.042V150.949C90.9388 150.698 90.8399 150.457 90.6634 150.278C90.487 150.1 90.2473 149.998 89.9963 149.995ZM156.905 124.938V174.396C156.905 174.916 156.48 175.337 155.958 175.337H149.766C149.516 175.337 149.276 175.239 149.098 175.062C148.921 174.886 148.82 174.646 148.819 174.396V136.501C148.819 136.064 148.527 135.771 148.158 135.771C147.79 135.771 147.571 135.988 147.422 136.428L134.487 174.695C134.422 174.882 134.301 175.045 134.139 175.159C133.978 175.274 133.785 175.336 133.587 175.337H126.42C126.223 175.336 126.031 175.274 125.871 175.159C125.711 175.045 125.59 174.883 125.525 174.698L112.512 136.428C112.365 135.99 112.144 135.771 111.776 135.771C111.409 135.771 111.117 136.064 111.117 136.501V174.396C111.117 174.916 110.692 175.337 110.17 175.337H103.978C103.728 175.337 103.487 175.239 103.31 175.062C103.132 174.886 103.032 174.646 103.031 174.396V124.936C103.031 124.416 103.456 123.993 103.978 123.993H115.143C115.548 123.993 115.907 124.249 116.037 124.632L129.417 163.708C129.564 164.148 129.785 164.367 130.153 164.367C130.519 164.367 130.738 164.148 130.886 163.708L144.267 124.634C144.332 124.448 144.453 124.287 144.614 124.172C144.774 124.058 144.967 123.996 145.164 123.995H155.96C156.483 123.995 156.905 124.418 156.905 124.938ZM194.25 150.617V174.394C194.25 174.914 193.827 175.337 193.303 175.337H187.626C187.376 175.337 187.136 175.239 186.958 175.062C186.781 174.886 186.681 174.646 186.679 174.396V171.385C186.679 170.873 186.387 170.583 186.092 170.583C185.724 170.583 185.579 170.728 185.137 171.239C182.418 174.312 178.743 175.993 174.186 175.993C167.277 175.993 162.205 172.191 162.205 165.316C162.205 158.148 167.498 154.857 176.097 153.321L180.654 152.517C184.695 151.785 186.24 150.979 186.24 148.86C186.24 145.35 183.52 143.3 178.964 143.3C174.934 143.3 171.918 144.945 171.454 148.405C171.424 148.632 171.313 148.841 171.14 148.992C170.967 149.143 170.746 149.227 170.516 149.226H164.473C164.34 149.225 164.209 149.196 164.087 149.141C163.966 149.086 163.858 149.007 163.769 148.907C163.681 148.808 163.614 148.691 163.573 148.564C163.532 148.437 163.519 148.303 163.533 148.171C164.324 140.969 170.406 137.305 178.964 137.305C188.151 137.305 194.25 141.329 194.25 150.617ZM186.461 157.934C186.461 157.781 186.424 157.63 186.353 157.494C186.282 157.359 186.179 157.243 186.053 157.156C185.927 157.069 185.781 157.014 185.629 156.996C185.477 156.978 185.323 156.997 185.18 157.052C184.203 157.436 182.881 157.717 181.315 158.001L177.714 158.66C172.275 159.685 170.291 161.658 170.291 164.95C170.291 167.948 172.349 169.996 176.097 169.996C181.462 169.996 186.461 166.486 186.461 160.122V157.934ZM227.933 138.04H200.574C200.45 138.039 200.327 138.064 200.213 138.111C200.098 138.158 199.994 138.227 199.906 138.315C199.818 138.402 199.748 138.506 199.7 138.621C199.652 138.735 199.628 138.858 199.627 138.982V143.753C199.627 144.273 200.052 144.696 200.574 144.696H216.679C217.193 144.696 217.414 144.988 217.414 145.354C217.414 145.571 217.266 145.792 217.119 146.011L199.274 169.569C199.027 169.896 198.893 170.294 198.893 170.704V174.396C198.893 174.916 199.315 175.339 199.84 175.339H227.933C228.183 175.339 228.423 175.241 228.601 175.064C228.778 174.888 228.878 174.649 228.88 174.398V169.695C228.879 169.571 228.855 169.448 228.807 169.333C228.759 169.219 228.689 169.115 228.601 169.027C228.514 168.94 228.409 168.87 228.294 168.823C228.18 168.776 228.057 168.752 227.933 168.752H210.872C210.359 168.752 210.136 168.46 210.136 168.096C210.136 167.875 210.285 167.656 210.43 167.437L228.498 143.586C228.745 143.259 228.879 142.861 228.88 142.451V138.98C228.879 138.856 228.855 138.733 228.807 138.619C228.759 138.504 228.689 138.4 228.601 138.313C228.514 138.225 228.409 138.156 228.294 138.109C228.18 138.061 228.057 138.039 227.933 138.04ZM265.531 155.811C265.531 156.51 265.531 157.178 265.507 157.834C265.497 158.078 265.393 158.308 265.217 158.476C265.041 158.644 264.806 158.737 264.562 158.736H240.874C240.745 158.735 240.617 158.76 240.498 158.81C240.38 158.861 240.272 158.935 240.184 159.029C240.095 159.123 240.026 159.234 239.982 159.355C239.938 159.476 239.919 159.606 239.927 159.734C240.346 165.522 243.221 169.779 248.995 169.779C253.452 169.779 255.985 167.617 256.708 165.11C256.766 164.915 256.886 164.744 257.049 164.623C257.213 164.502 257.411 164.437 257.614 164.438H263.787C264.378 164.438 264.822 164.971 264.721 165.55C263.481 172.555 257.103 175.995 248.995 175.995C238.558 175.995 231.575 169.192 231.575 156.688C231.575 144.327 238.19 137.307 249.069 137.307C259.505 137.307 265.531 143.816 265.531 155.811ZM257.373 152.08C257.373 146.522 253.993 143.521 249.069 143.521C243.944 143.521 240.898 146.726 240.122 152.301C240.109 152.401 240.117 152.503 240.147 152.599C240.176 152.696 240.226 152.785 240.293 152.861C240.359 152.937 240.441 152.998 240.534 153.04C240.626 153.081 240.726 153.103 240.827 153.102H256.418C256.931 153.102 257.373 152.812 257.373 152.08Z" fill="black"/>
</g>
<defs>
<clipPath id="clip0_240_534">
<rect width="234" height="52" fill="white" transform="translate(33 124)"/>
</clipPath>
</defs>
</svg>
