<svg width="300" height="300" viewBox="0 0 300 300" fill="none" xmlns="http://www.w3.org/2000/svg">
<g clip-path="url(#clip0_200_218)">
<path d="M81.5417 47H218.458C239.217 47 256 63.8077 256 84.5962V216.404C256 237.192 239.217 254 218.458 254H81.5417C60.7833 254 44 237.192 44 216.404V84.5962C44 63.8077 60.7833 47 81.5417 47Z" fill="#001E36"/>
<path d="M91.7002 192.166V101.139C91.7002 100.519 91.9652 100.166 92.5835 100.166C94.0852 100.166 95.4985 100.166 97.5302 100.077C99.6502 99.9886 101.859 99.9886 104.244 99.9001C106.629 99.8117 109.19 99.8117 111.929 99.7232C114.667 99.6348 117.317 99.6348 119.967 99.6348C127.21 99.6348 133.217 100.519 138.164 102.377C142.58 103.881 146.644 106.358 150 109.631C152.827 112.462 155.035 115.912 156.449 119.716C157.774 123.431 158.48 127.235 158.48 131.216C158.48 138.823 156.714 145.104 153.18 150.058C149.647 155.012 144.7 158.727 138.959 160.85C132.952 163.062 126.327 163.858 119.084 163.858C116.964 163.858 115.55 163.858 114.667 163.769C113.784 163.681 112.547 163.681 110.869 163.681V192.077C110.957 192.696 110.515 193.227 109.897 193.316C109.809 193.316 109.72 193.316 109.544 193.316H92.7602C92.0535 193.316 91.7002 192.962 91.7002 192.166ZM110.957 117.239V146.962C112.194 147.05 113.342 147.139 114.402 147.139H119.084C122.529 147.139 125.974 146.608 129.242 145.546C132.069 144.75 134.542 143.069 136.485 140.858C138.34 138.646 139.224 135.639 139.224 131.746C139.312 129.004 138.605 126.262 137.192 123.873C135.69 121.573 133.57 119.804 131.009 118.831C127.74 117.504 124.207 116.973 120.585 117.062C118.289 117.062 116.257 117.062 114.579 117.15C112.812 117.062 111.575 117.15 110.957 117.239Z" fill="#31A8FF"/>
<path d="M213.6 141.566C210.95 140.15 208.123 139.177 205.12 138.558C201.852 137.85 198.583 137.408 195.227 137.408C193.46 137.319 191.605 137.585 189.927 138.027C188.778 138.292 187.807 138.912 187.188 139.796C186.747 140.504 186.482 141.389 186.482 142.185C186.482 142.981 186.835 143.777 187.365 144.485C188.16 145.458 189.22 146.254 190.368 146.873C192.4 147.935 194.52 148.908 196.64 149.792C201.41 151.385 206.003 153.596 210.243 156.25C213.158 158.108 215.543 160.585 217.222 163.592C218.635 166.423 219.342 169.519 219.253 172.704C219.342 176.862 218.105 181.019 215.808 184.469C213.335 188.008 209.89 190.75 205.915 192.342C201.587 194.2 196.287 195.173 189.927 195.173C185.863 195.173 181.888 194.819 177.913 194.023C174.822 193.492 171.73 192.519 168.903 191.192C168.285 190.839 167.843 190.219 167.932 189.512V174.119C167.932 173.854 168.02 173.5 168.285 173.323C168.55 173.146 168.815 173.235 169.08 173.412C172.525 175.446 176.147 176.862 180.033 177.746C183.39 178.631 186.923 179.073 190.457 179.073C193.813 179.073 196.198 178.631 197.788 177.835C199.202 177.216 200.173 175.712 200.173 174.119C200.173 172.881 199.467 171.731 198.053 170.581C196.64 169.431 193.725 168.104 189.397 166.423C184.892 164.831 180.74 162.708 176.853 160.054C174.115 158.108 171.818 155.542 170.14 152.535C168.727 149.704 168.02 146.608 168.108 143.512C168.108 139.708 169.168 136.081 171.112 132.808C173.32 129.269 176.588 126.439 180.387 124.669C184.538 122.546 189.75 121.573 196.022 121.573C199.643 121.573 203.353 121.839 206.975 122.369C209.625 122.723 212.187 123.431 214.572 124.404C214.925 124.492 215.278 124.846 215.455 125.2C215.543 125.554 215.632 125.908 215.632 126.262V140.681C215.632 141.035 215.455 141.389 215.19 141.566C214.395 141.742 213.953 141.742 213.6 141.566Z" fill="#31A8FF"/>
</g>
<defs>
<clipPath id="clip0_200_218">
<rect width="212" height="207" fill="white" transform="translate(44 47)"/>
</clipPath>
</defs>
</svg>
