<svg width="300" height="300" viewBox="0 0 300 300" fill="none" xmlns="http://www.w3.org/2000/svg">
<mask id="mask0_200_225" style="mask-type:luminance" maskUnits="userSpaceOnUse" x="67" y="67" width="166" height="166">
<path d="M73.1453 67C71.3704 67 69.7577 67.757 68.6532 68.9812C67.6608 70.0306 67.0406 71.4392 67 72.9773V73.3917C67.0191 74.1176 67.1646 74.8028 67.4222 75.4353C67.4318 75.488 67.4533 75.5383 67.4723 75.591C67.6703 76.0677 67.928 76.5133 68.2405 76.9182C68.3526 77.0739 68.4767 77.2177 68.6103 77.3542C68.6317 77.3854 68.6627 77.4165 68.6938 77.4501L88.2913 100.813L95.3669 109.246L116.548 134.487L123.615 142.913L142.58 165.521L149.646 173.944V232.998C153.811 232.998 157.592 231.338 160.372 228.652C160.381 228.652 160.381 228.652 160.381 228.643L162.469 226.151L213.329 165.521L230.746 144.762C230.83 144.666 230.911 144.575 230.985 144.47C231.355 144.003 231.655 143.483 231.872 142.913C232.151 142.218 232.297 141.47 232.297 140.673V73.1857C232.297 71.5542 231.665 70.0617 230.632 68.9717C229.518 67.757 227.917 67 226.137 67H73.1453Z" fill="white"/>
</mask>
<g mask="url(#mask0_200_225)">
<path fill-rule="evenodd" clip-rule="evenodd" d="M73.1453 67C71.3704 67 69.7577 67.757 68.6532 68.9812C67.6608 70.0306 67.0406 71.4392 67 72.9773V73.3917C67.0191 74.1176 67.1646 74.8028 67.4222 75.4353C67.4318 75.488 67.4533 75.5383 67.4723 75.591C67.6703 76.0677 67.928 76.5133 68.2405 76.9182C68.3526 77.0739 68.4767 77.2177 68.6103 77.3542C68.6317 77.3854 68.6627 77.4165 68.6938 77.4501L88.2913 100.813L95.3669 109.246L116.548 134.487L123.615 142.913L142.58 165.521L149.646 173.944V232.998C153.811 232.998 157.592 231.338 160.372 228.652C160.381 228.652 160.381 228.652 160.381 228.643L162.469 226.151L213.329 165.521L230.746 144.762C230.83 144.666 230.911 144.575 230.985 144.47C231.355 144.003 231.655 143.483 231.872 142.913C232.151 142.218 232.297 141.47 232.297 140.673V73.1857C232.297 71.5542 231.665 70.0617 230.632 68.9717C229.518 67.757 227.917 67 226.137 67H73.1453Z" fill="url(#paint0_linear_200_225)"/>
</g>
<path fill-rule="evenodd" clip-rule="evenodd" d="M149.648 207.746V233C145.486 233 141.704 231.339 138.925 228.654C138.913 228.654 138.913 228.654 138.913 228.642L136.828 226.153L85.9677 165.52L68.6532 144.886C68.6127 144.854 68.5816 144.811 68.5506 144.771L68.2811 144.45C68.2596 144.428 68.2405 144.409 68.219 144.378C67.8898 143.93 67.6107 143.443 67.4127 142.914C67.1646 142.282 67.0215 141.596 67 140.88V140.466C67.0429 138.911 67.6608 137.519 68.6532 136.46C69.7697 135.245 71.3704 134.488 73.1476 134.488H88.1696L95.2357 142.914L114.203 165.52L145.299 202.579L149.639 207.756L149.648 207.746Z" fill="#FCD1CA"/>
<path fill-rule="evenodd" clip-rule="evenodd" d="M149.648 173.947V207.748L149.639 207.757L145.299 202.58L114.203 165.521L95.2357 142.915L88.1696 134.489L68.5387 111.107C68.4576 111.012 68.3741 110.909 68.2906 110.806C67.9304 110.338 67.6298 109.818 67.4127 109.248C67.1646 108.616 67.0215 107.931 67 107.205V106.79C67.0429 105.245 67.6608 103.853 68.6532 102.797C69.7577 101.572 71.3704 100.815 73.1476 100.815H88.2937L95.3693 109.248L116.548 134.489L123.615 142.915L142.582 165.521L149.648 173.947Z" fill="#FF9D8D"/>
<defs>
<linearGradient id="paint0_linear_200_225" x1="14599.9" y1="-1574.64" x2="2200.29" y2="10772.6" gradientUnits="userSpaceOnUse">
<stop stop-color="#FF6660"/>
<stop offset="1" stop-color="#FB4444"/>
</linearGradient>
</defs>
</svg>
