<svg width="24" height="24" viewBox="0 0 24 24" fill="none" xmlns="http://www.w3.org/2000/svg">
<path d="M11 13V16.5C11 18.7091 9.20914 20.5 7 20.5H4V18.5H7C8.10457 18.5 9 17.6046 9 16.5V13H11ZM14 13V16.5C14 17.6046 14.8954 18.5 16 18.5H20V20.5H16C13.7909 20.5 12 18.7091 12 16.5V13H14ZM20 6H16C14.8954 6 14 6.89543 14 8V11H12V8C12 5.79086 13.7909 4 16 4H20V6ZM7 4C9.20914 4 11 5.79086 11 8V11H9V8C9 6.89543 8.10457 6 7 6H4V4H7Z" fill="white"/>
<path d="M19.2782 12.0866L16.1141 13.9134C16.0474 13.9519 15.9641 13.9038 15.9641 13.8268V12H6.4641V13.8268C6.4641 13.9038 6.38077 13.9519 6.3141 13.9134L3.15 12.0866C3.08333 12.0481 3.08333 11.9519 3.15 11.9134L6.3141 10.0866C6.38077 10.0481 6.4641 10.0962 6.4641 10.1732V12H15.9641V10.1732C15.9641 10.0962 16.0474 10.0481 16.1141 10.0866L19.2782 11.9134C19.3449 11.9519 19.3449 12.0481 19.2782 12.0866Z" fill="white"/>
<path d="M15.9641 12V10.1732C15.9641 10.0962 16.0474 10.0481 16.1141 10.0866L19.2782 11.9134C19.3449 11.9519 19.3449 12.0481 19.2782 12.0866L16.1141 13.9134C16.0474 13.9519 15.9641 13.9038 15.9641 13.8268V12ZM15.9641 12H6.4641M6.4641 12V10.1732C6.4641 10.0962 6.38077 10.0481 6.3141 10.0866L3.15 11.9134C3.08333 11.9519 3.08333 12.0481 3.15 12.0866L6.3141 13.9134C6.38077 13.9519 6.4641 13.9038 6.4641 13.8268V12Z" stroke="white"/>
</svg>
